<?xml version="1.0" encoding="UTF-8" standalone="no"?>
<svg
   version="1.1"
   x="0px"
   y="0px"
   viewBox="0 0 90 90"
   xml:space="preserve"
   id="svg14"
   sodipodi:docname="fat.svg"
   width="90"
   height="90"
   inkscape:version="1.1 (c68e22c387, 2021-05-23)"
   inkscape:export-filename=".\fat.png"
   inkscape:export-xdpi="106.66666"
   inkscape:export-ydpi="106.66666"
   xmlns:inkscape="http://www.inkscape.org/namespaces/inkscape"
   xmlns:sodipodi="http://sodipodi.sourceforge.net/DTD/sodipodi-0.dtd"
   xmlns="http://www.w3.org/2000/svg"
   xmlns:svg="http://www.w3.org/2000/svg"><defs
     id="defs18" /><sodipodi:namedview
     id="namedview16"
     pagecolor="#505050"
     bordercolor="#eeeeee"
     borderopacity="1"
     inkscape:pageshadow="0"
     inkscape:pageopacity="0"
     inkscape:pagecheckerboard="0"
     showgrid="false"
     inkscape:snap-bbox="true"
     inkscape:snap-page="true"
     inkscape:zoom="7.76"
     inkscape:cx="45.03866"
     inkscape:cy="56.314433"
     inkscape:window-width="2560"
     inkscape:window-height="1400"
     inkscape:window-x="-12"
     inkscape:window-y="-12"
     inkscape:window-maximized="1"
     inkscape:current-layer="svg14" /><path
     d="M 69.75945,44.800002 C 69.256209,35.339074 66.337412,23.059997 54.762872,18.128237 52.548612,21.047034 48.925278,22.959349 45,22.959349 v 0 0 c -4.025927,0 -7.548613,-1.912315 -9.762873,-4.831112 -11.574539,4.93176 -14.493336,17.311485 -14.996577,26.671765 -0.503241,21.035467 7.246668,16.808244 7.246668,16.808244 0,0 -2.314908,-13.386207 -2.113611,-16.808244 0,-8.051854 4.327871,-14.996578 4.529167,-15.298522 0.301945,-0.503241 1.006482,-0.704537 1.610371,-0.402593 0.503241,0.301945 0.704537,1.006482 0.402593,1.610371 0,0.100648 -4.126575,6.743427 -4.126575,14.090744 0,0 0,0 0,0 0.301944,9.964168 6.340834,40.66186 6.340834,40.66186 0,0 0.603889,3.623334 4.730464,3.623334 5.435002,0 5.032409,-4.025926 5.032409,-4.025926 0,0 -0.100648,-26.873062 -0.100648,-26.97371 0,-0.402593 0.100648,-1.409074 1.308426,-1.409074 v 0 0 c 1.207778,0 1.308426,1.10713 1.308426,1.409074 0,0.100648 -0.100648,26.97371 -0.100648,26.97371 0,0 -0.301945,4.025926 5.032408,4.025926 4.126575,0 4.730464,-3.623334 4.730464,-3.623334 0,0 6.038891,-30.697692 6.340835,-40.66186 0,0 0,0 0,0 0,-7.347317 -4.126575,-14.090744 -4.126575,-14.090744 -0.301944,-0.503241 -0.201296,-1.207778 0.402593,-1.610371 0.503241,-0.301944 1.207778,-0.201296 1.610371,0.402593 0.201296,0.301944 4.529167,7.347316 4.529167,15.298522 0.100648,3.321389 -2.113611,16.808244 -2.113611,16.808244 0,0 7.548612,4.227223 7.045372,-16.808244 z"
     id="path2"
     style="stroke-width:1.00648;fill:#ffffff" /><g
     id="g8"
     transform="matrix(1.0064817,0,0,1.0064817,-0.29167676,-0.2903785)"
     style="fill:#ffffff"><g
       id="g6"
       style="fill:#ffffff"><path
         d="m 55,10.8 c 0,5.5 -4.5,10 -10,10 -5.5,0 -10,-4.5 -10,-10 0,-5.5 4.5,-10 10,-10 5.5,0 10,4.5 10,10 z"
         id="path4"
         style="fill:#ffffff" /></g></g><text
     x="0"
     y="105"
     fill="#000000"
     font-size="5px"
     font-weight="bold"
     font-family="'Helvetica Neue', Helvetica, Arial-Unicode, Arial, Sans-serif"
     id="text10">Created by Monika</text><text
     x="0"
     y="110"
     fill="#000000"
     font-size="5px"
     font-weight="bold"
     font-family="'Helvetica Neue', Helvetica, Arial-Unicode, Arial, Sans-serif"
     id="text12">from the Noun Project</text></svg>
