<?xml version="1.0" encoding="UTF-8" standalone="no"?>
<!-- Generator: Adobe Illustrator 15.0.0, SVG Export Plug-In . SVG Version: 6.00 Build 0)  -->

<svg
   version="1.1"
   id="Layer_1"
   x="0px"
   y="0px"
   width="48px"
   height="48px"
   viewBox="0 0 48 48"
   enable-background="new 0 0 48 48"
   xml:space="preserve"
   inkscape:version="1.1 (c68e22c387, 2021-05-23)"
   sodipodi:docname="fit.svg"
   inkscape:export-filename="./fit.png"
   inkscape:export-xdpi="200"
   inkscape:export-ydpi="200"
   xmlns:inkscape="http://www.inkscape.org/namespaces/inkscape"
   xmlns:sodipodi="http://sodipodi.sourceforge.net/DTD/sodipodi-0.dtd"
   xmlns:xlink="http://www.w3.org/1999/xlink"
   xmlns="http://www.w3.org/2000/svg"
   xmlns:svg="http://www.w3.org/2000/svg"
   xmlns:rdf="http://www.w3.org/1999/02/22-rdf-syntax-ns#"
   xmlns:cc="http://creativecommons.org/ns#"
   xmlns:dc="http://purl.org/dc/elements/1.1/"><metadata
     id="metadata13"><rdf:RDF><cc:Work
         rdf:about=""><dc:format>image/svg+xml</dc:format><dc:type
           rdf:resource="http://purl.org/dc/dcmitype/StillImage" /></cc:Work></rdf:RDF></metadata><defs
     id="defs11" /><sodipodi:namedview
     pagecolor="#000000"
     bordercolor="#666666"
     borderopacity="1"
     objecttolerance="10"
     gridtolerance="10"
     guidetolerance="10"
     inkscape:pageopacity="0"
     inkscape:pageshadow="2"
     inkscape:window-width="2560"
     inkscape:window-height="1400"
     id="namedview9"
     showgrid="false"
     inkscape:zoom="2.4244791"
     inkscape:cx="54.650914"
     inkscape:cy="23.922664"
     inkscape:window-x="-12"
     inkscape:window-y="-12"
     inkscape:window-maximized="1"
     inkscape:current-layer="layer2"
     showguides="true"
     inkscape:guide-bbox="true"
     inkscape:pagecheckerboard="true"
     inkscape:snap-bbox="true"
     inkscape:bbox-paths="true"
     inkscape:bbox-nodes="true"
     inkscape:snap-bbox-edge-midpoints="true"
     inkscape:snap-bbox-midpoints="true"
     inkscape:snap-object-midpoints="true"
     inkscape:snap-page="true"
     inkscape:object-paths="true"
     inkscape:snap-intersection-paths="true"
     inkscape:snap-smooth-nodes="true"
     inkscape:snap-midpoints="true"
     inkscape:snap-center="true"
     inkscape:snap-text-baseline="true"><sodipodi:guide
       orientation="1,0"
       position="24,24"
       id="guide3781" /><sodipodi:guide
       position="29.800215,43.050483"
       orientation="0,-1"
       id="guide911" /><sodipodi:guide
       position="21.551021,37.01826"
       orientation="0,-1"
       id="guide1120" /></sodipodi:namedview><path
     clip-rule="evenodd"
     d="M-290.126,220.572c0.333-0.548,1.67-0.09,2.4-0.24  C-288.059,220.879-289.396,220.421-290.126,220.572z"
     id="path3"
     fill-rule="evenodd"
     fill="#FFFFFF" /><g
     inkscape:groupmode="layer"
     id="layer1"
     inkscape:label="Capa"
     style="display:none"
     sodipodi:insensitive="true"><g
       id="g1263"
       transform="matrix(1.2047477,0,0,1.2047477,-4.9892058,-4.8459893)"><path
         id="path3758"
         transform="matrix(1.086331,0,0,1.0382166,-1.4296942,-0.31239512)"
         style="fill:#ffffff;fill-opacity:1"
         cx="23.567797"
         cy="8.2118645"
         rx="3.5338981"
         ry="3.9915257"
         d="" /><path
         clip-rule="evenodd"
         d="m 17.48091,9.153 c 0.634,2.825 -3.259,1.124 -3.068,3.507 5.555,1.022 13.004,0.147 19.289,0.438 1.021,-2.647 -2.543023,-1.723971 -2.629,-3.068 -0.117884,-1.842815 3.383344,-1.4392978 4.631441,0.464661 1.248096,1.903959 1.584559,2.961339 1.504559,6.549339 -2.115,0.37 -4.369,0.601 -6.576,0.877 -4.391,5.704 0.467,14.915 -3.068,22.796 -0.332,2.085 2.928,0.578 2.191,3.069 h -4.822 c 0.243,-5.504 -0.772,-9.75 -0.438,-15.345 -1.83,3.724 -0.307,10.799 -1.315,15.345 -1.611,-0.144 -3.881,0.373 -4.823,-0.438 -0.057,-1.519 1.929,-0.994 2.192,-2.192 -3.035,-8.327 0.861,-16.678 -2.631,-23.234 -2.474,-0.156 -4.721,-0.539 -7.014,-0.877 0.878,-3.656 1.201,-10.193 6.576,-7.892 z"
         id="path7"
         inkscape:connector-curvature="0"
         style="fill:#ffffff;fill-rule:evenodd"
         sodipodi:nodetypes="cccszcccccccccccc" /></g><image
       width="48"
       height="48"
       preserveAspectRatio="none"
       xlink:href="fit.png"
       id="image835"
       x="0"
       y="0"
       style="fill:#ffffff" /><circle
       style="fill:#ffffff"
       id="path935"
       cx="24"
       cy="4.9495168"
       r="4.9495168" /></g><g
     inkscape:groupmode="layer"
     id="layer2"
     inkscape:label="Capa 1"
     style="display:inline;opacity:1"><circle
       style="fill:#ffffff"
       id="path973"
       cx="24"
       cy="4.9495168"
       r="4.9495168" /><path
       id="rect1012"
       style="fill:#ffffff"
       d="M 13.662109,5.5957031 C 11.479286,5.5676203 9.8689575,7.5929237 9.5458069,9.1431414 8.4478562,11.362945 8.3671875,14.701172 8.3671875,14.701172 c -0.1431259,0.6704 0.2879132,0.780665 0.8476563,0.988281 2.3334732,0.943779 4.6504122,1.306499 7.5312502,1.359375 0.220678,0.446012 1.836134,3.842787 1.726562,8.064453 -0.0726,2.797113 -0.07953,4.874316 -0.136718,5.65625 -0.05719,0.781934 -0.27809,1.513643 -0.271485,3.439453 0.0086,2.500906 0.351563,4.294922 0.351563,4.294922 l 0.666015,4.029297 -0.193359,3.972656 c -0.03723,0.768647 0.370326,1.404121 0.912109,1.435547 l 2.316407,0.134766 c 0.541782,0.03143 1.024966,-0.570554 1.044921,-1.339844 l 0.203125,-7.824219 c 0,0 0.254878,-2.404195 0.3125,-3.558593 0.0576,-1.154399 0.14724,-3.220981 0.138672,-3.84375 C 23.807835,30.886996 24,29.451172 24,29.451172 c 0.0085,-0.09581 0.0083,-0.167676 0,-0.220703 V 10.982422 h -4.253906 l -3.011719,-0.07617 c -2.349562,-0.9203977 -2.64657,-0.659889 -4.359375,-0.5 -0.0037,-0.336373 0.01953,-0.7259762 0.167969,-0.953125 0.601535,-0.92053 1.963685,-0.8392146 2.597656,-1.1816406 0.995119,-0.5374911 0.972102,-0.8371155 1.013672,-1.4160156 0.03829,-0.5332263 -0.144261,-0.9461247 -2.048828,-1.2265626 -0.150502,-0.020411 -0.297838,-0.031331 -0.44336,-0.033203 z"
       sodipodi:nodetypes="sccccsscccccccccsccccccssscs" /><use
       x="0"
       y="0"
       xlink:href="#rect1012"
       id="use2906"
       transform="matrix(-1,0,0,1,48,0)"
       width="100%"
       height="100%"
       style="fill:#ffffff" /></g></svg>
