<?xml version="1.0" encoding="UTF-8" standalone="no"?>
<svg
   version="1.1"
   x="0px"
   y="0px"
   viewBox="0 0 200.00001 199.99999"
   xml:space="preserve"
   id="svg20"
   sodipodi:docname="tired.svg"
   width="200"
   height="200"
   inkscape:export-filename=".\tired.png"
   inkscape:export-xdpi="48"
   inkscape:export-ydpi="48"
   inkscape:version="1.1 (c68e22c387, 2021-05-23)"
   xmlns:inkscape="http://www.inkscape.org/namespaces/inkscape"
   xmlns:sodipodi="http://sodipodi.sourceforge.net/DTD/sodipodi-0.dtd"
   xmlns="http://www.w3.org/2000/svg"
   xmlns:svg="http://www.w3.org/2000/svg"><defs
     id="defs24" /><sodipodi:namedview
     id="namedview22"
     pagecolor="#505050"
     bordercolor="#eeeeee"
     borderopacity="1"
     inkscape:pageshadow="0"
     inkscape:pageopacity="0"
     inkscape:pagecheckerboard="0"
     showgrid="false"
     width="20px"
     inkscape:zoom="2.4843715"
     inkscape:cx="10.666682"
     inkscape:cy="146.51593"
     inkscape:window-width="2560"
     inkscape:window-height="1400"
     inkscape:window-x="-12"
     inkscape:window-y="-12"
     inkscape:window-maximized="1"
     inkscape:current-layer="svg20" /><g
     id="g14"
     style="fill:#ffffff"
     transform="translate(37.285482,0.569244)"><path
       d="M 55.849,44.803 C 35.387,50.692 23.762,56.967 6.97,71.743 -4.484,83.483 0.441,93.495 5.753,100.962 c 1.332,1.873 2.527,3.451 3.744,4.63 l 13.569,35.622 -7.266,42.978 c -1.152,6.808 3.434,13.258 10.24,14.41 0.706,0.119 1.408,0.178 2.102,0.178 5.986,0 11.275,-4.316 12.309,-10.418 l 7.742,-45.792 c -0.297,0.026 -0.597,0.043 -0.899,0.043 -1.026,0 -2.05,-0.159 -3.038,-0.475 -5.254,-1.675 -8.164,-7.314 -6.489,-12.566 L 41.239,118.683 32.825,96.598 C 38.714,92.524 45.253,89.056 51.653,86.027 L 58.6,64.237 c 1.326,-4.163 5.153,-6.962 9.521,-6.962 1.029,0 2.055,0.162 3.043,0.477 2.544,0.81 4.621,2.563 5.848,4.937 1.225,2.372 1.453,5.08 0.641,7.626 l -1.455,4.564 C 82.925,70.373 87.177,62.861 84.721,56.367 81.611,48.139 70.752,40.603 55.849,44.803 Z"
       id="path2"
       style="fill:#ffffff" /><path
       d="m 70.556,59.656 c -4.209,-1.344 -8.711,0.981 -10.053,5.19 l -20.832,65.335 c -1.344,4.209 0.981,8.71 5.19,10.052 0.808,0.258 1.627,0.38 2.433,0.38 3.39,0 6.535,-2.171 7.619,-5.572 L 75.747,69.709 c 1.342,-4.212 -0.982,-8.711 -5.191,-10.053 z"
       id="path4"
       style="fill:#ffffff" /><ellipse
       transform="matrix(0.9733,-0.2296,0.2296,0.9733,-11.657,27.5902)"
       cx="112.747"
       cy="63.894001"
       rx="22.495001"
       ry="22.493999"
       id="ellipse6"
       style="fill:#ffffff" /><path
       d="m 103.01039,-34.248983 c 0.968,-0.93 0.037,-3.088 -0.941,-2.148 -2.441004,2.343 -4.283004,5.682 -4.681004,9.701 -0.43,4.334 2.769004,7.113 3.129004,11.182 0.242,2.736 -1.037004,5.7360004 -2.502004,7.5590004 -0.883,1.098 0.44,2.854 1.318,1.76 2.455004,-3.055 3.527004,-7.4730004 2.717004,-11.8070004 -0.807,-4.314 -3.883004,-6.391 -2.220004,-11.31 0.647004,-1.915 1.903004,-3.712 3.180004,-4.937 z"
       id="path8"
       style="fill:#ffffff" /><path
       d="m 113.94239,-34.248983 c 0.967,-0.93 0.037,-3.088 -0.941,-2.148 -2.439,2.343 -4.283,5.682 -4.682,9.701 -0.428,4.334 2.77,7.113 3.13,11.182 0.242,2.736 -1.037,5.7360004 -2.502,7.5590004 -0.882,1.098 0.44,2.854 1.318,1.76 2.455,-3.055 3.527,-7.4730004 2.717,-11.8070004 -0.806,-4.314 -3.883,-6.391 -2.22,-11.31 0.647,-1.915 1.904,-3.712 3.18,-4.937 z"
       id="path10"
       style="fill:#ffffff" /><path
       d="m 124.87439,-34.248983 c 0.968,-0.93 0.038,-3.088 -0.94,-2.148 -2.44,2.343 -4.283,5.682 -4.682,9.701 -0.429,4.334 2.769,7.113 3.129,11.182 0.243,2.736 -1.037,5.7360004 -2.502,7.5590004 -0.882,1.098 0.441,2.854 1.319,1.76 2.454,-3.055 3.526,-7.4730004 2.717,-11.8070004 -0.806,-4.314 -3.884,-6.391 -2.22,-11.31 0.647,-1.915 1.904,-3.712 3.179,-4.937 z"
       id="path12"
       style="fill:#ffffff" /></g><text
     x="0"
     y="213.78"
     fill="#000000"
     font-size="5px"
     font-weight="bold"
     font-family="'Helvetica Neue', Helvetica, Arial-Unicode, Arial, Sans-serif"
     id="text16">Created by Gan Khoon Lay</text><text
     x="0"
     y="218.78"
     fill="#000000"
     font-size="5px"
     font-weight="bold"
     font-family="'Helvetica Neue', Helvetica, Arial-Unicode, Arial, Sans-serif"
     id="text18">from the Noun Project</text></svg>
